<?xml version="1.0" encoding="UTF-8"?>
<svg id="_레이어_1" data-name="레이어 1" xmlns="http://www.w3.org/2000/svg" xmlns:xlink="http://www.w3.org/1999/xlink" viewBox="0 0 600 150">
  <defs>
    <style>
      .cls-1 {
        fill: #fff;
        font-family: TTMamablockR, '210 Mamablock';
        font-size: 150px;
      }

      .cls-2 {
        fill: url(#_무제_그라디언트_420);
      }

      .cls-2, .cls-3 {
        fill-rule: evenodd;
      }

      .cls-3 {
        fill: url(#_무제_그라디언트_420-2);
      }
    </style>
    <linearGradient id="_무제_그라디언트_420" data-name="무제 그라디언트 420" x1="260.81" y1="-114.96" x2="370.24" y2="-114.96" gradientTransform="translate(230.84 376.4) rotate(-91.11)" gradientUnits="userSpaceOnUse">
      <stop offset="0" stop-color="#fa709a"/>
      <stop offset="1" stop-color="#fee140"/>
    </linearGradient>
    <linearGradient id="_무제_그라디언트_420-2" data-name="무제 그라디언트 420" x1="237.25" y1="-137.27" x2="346.69" y2="-137.27" xlink:href="#_무제_그라디언트_420"/>
  </defs>
  <g>
    <path class="cls-2" d="M144.51,40.68h18.19s16.15,15.76,16.15,15.76h-17.79s-16.55-15.76-16.55-15.76Zm-28.07,0h23.2s16.99,15.76,16.99,15.76h-24.98s-15.21-15.76-15.21-15.76ZM72.08,9.17h68.67s18.97,21.79,18.97,21.79c0,0-74.95,0-84.51,0s-16.51,4.27-10.09,13.68c5.9,8.64,38.33,44.12,46.73,53.62,10.84,12.25-5.62,28.22-17.62,14.36L48.17,59.42c-10.82-13.17-17.25-47.74,23.91-50.25Z"/>
    <path class="cls-3" d="M53.18,109.63h-18.19s-16.15-15.76-16.15-15.76h17.79s16.55,15.76,16.55,15.76Zm28.07,0h-23.2s-16.99-15.76-16.99-15.76h24.98s15.21,15.76,15.21,15.76Zm44.37,31.51H56.94s-18.97-21.79-18.97-21.79c0,0,74.95,0,84.51,0,9.56,0,16.51-4.27,10.09-13.68-5.9-8.64-38.33-44.12-46.73-53.62-10.84-12.25,5.62-28.22,17.62-14.36l46.07,53.21c10.82,13.17,17.25,47.74-23.91,50.25Z"/>
  </g>
  <text class="cls-1" transform="translate(190.62 146.85) scale(1.1)"><tspan x="0" y="0">SOLAI</tspan></text>
</svg>